<?xml version="1.0" standalone="no"?>
<!DOCTYPE svg PUBLIC "-//W3C//DTD SVG 20010904//EN"
 "http://www.w3.org/TR/2001/REC-SVG-20010904/DTD/svg10.dtd">
<svg version="1.0" xmlns="http://www.w3.org/2000/svg"
 width="700.000000pt" height="700.000000pt" viewBox="0 0 700.000000 700.000000"
 preserveAspectRatio="xMidYMid meet">
<metadata>
Created by potrace 1.11, written by Peter Selinger 2001-2013
</metadata>
<g transform="translate(0.000000,700.000000) scale(0.100000,-0.100000)"
fill="#000000" stroke="none">
<path d="M3447 6703 c-346 -855 -349 -863 -339 -864 4 0 52 -1 106 -2 77 0
102 3 108 14 4 8 37 86 73 174 l64 160 1 -1207 0 -1207 -22 -26 -23 -26 -425
426 c-234 234 -427 428 -430 431 -5 6 421 434 433 434 5 0 29 -20 54 -44 l45
-44 51 53 c29 29 78 78 110 109 l58 57 -450 449 c-247 248 -451 450 -454 450
-6 0 -217 -210 -217 -216 0 -2 19 -22 41 -43 l42 -39 -221 -221 -222 -222 -72
31 c-40 18 -101 42 -135 55 l-61 23 8 -26 c4 -15 26 -72 48 -127 23 -55 42
-105 44 -110 2 -6 -88 -102 -199 -213 l-203 -202 -40 41 c-40 41 -41 42 -61
23 -39 -35 -199 -195 -199 -199 0 -2 202 -207 450 -454 l450 -450 110 110 110
109 -45 45 c-25 24 -45 48 -45 52 0 5 90 98 199 207 l200 200 425 -425 c233
-233 426 -429 428 -435 2 -6 -69 -87 -158 -180 -89 -93 -176 -185 -195 -205
-30 -33 -300 -315 -389 -409 -155 -162 -348 -367 -367 -388 l-23 -27 -46 45
c-26 25 -60 58 -76 74 l-29 30 -25 -25 -25 -25 94 -96 94 -96 -303 -303 -304
-304 96 -96 96 -96 304 304 303 304 86 -85 c48 -48 89 -86 93 -86 3 0 16 10
29 22 l24 22 -67 67 c-57 57 -64 68 -51 80 8 8 94 91 192 184 216 206 222 211
475 455 112 107 215 206 230 220 14 14 56 54 93 90 l67 64 0 -449 0 -450 -25
-30 c-60 -74 -405 -516 -405 -519 0 -2 12 -6 27 -9 35 -6 48 8 238 256 83 108
153 196 158 196 4 1 7 -17 7 -38 0 -45 19 -17 -248 -358 -100 -128 -182 -235
-182 -238 0 -3 15 -5 34 -5 28 0 39 7 57 33 13 17 28 37 34 43 5 6 73 93 150
192 77 100 143 181 148 181 4 1 7 -16 7 -38 0 -30 -10 -52 -52 -107 -28 -38
-55 -71 -58 -74 -12 -10 -320 -408 -320 -414 0 -3 15 -6 33 -6 29 0 39 10 102
91 39 50 75 97 80 103 6 6 55 69 110 140 l100 128 3 -42 c3 -45 1 -49 -103
-180 -208 -263 -317 -403 -321 -414 -3 -8 5 -12 26 -12 25 0 39 9 68 45 20 25
44 55 54 66 9 11 74 94 145 184 l128 164 3 -41 c3 -45 -1 -52 -156 -247 -80
-102 -71 -90 -177 -225 -49 -63 -93 -118 -98 -121 -12 -9 36 -17 56 -10 19 7
38 30 232 278 l140 180 3 -39 c4 -46 -2 -56 -103 -183 -181 -228 -325 -414
-325 -419 0 -3 15 -6 33 -6 27 0 39 8 72 51 22 28 45 56 50 63 6 6 42 52 80
101 38 50 97 125 132 168 l63 79 0 -45 c0 -44 -7 -54 -215 -319 -118 -150
-215 -276 -215 -280 0 -10 52 -10 66 0 6 4 28 30 49 57 33 44 251 321 297 379
17 21 17 20 18 -25 0 -37 -6 -54 -31 -85 -65 -83 -83 -105 -239 -304 -88 -112
-160 -207 -160 -211 0 -3 15 -5 33 -5 32 1 63 36 326 375 14 19 36 46 48 60
l22 26 1 -45 c0 -39 -6 -53 -48 -105 -27 -33 -122 -154 -213 -270 -90 -116
-167 -212 -171 -213 -19 -9 5 -19 34 -16 39 5 32 -4 263 293 l180 231 25 -29
c14 -16 59 -73 100 -126 41 -53 82 -105 90 -115 8 -10 56 -70 105 -133 91
-117 102 -126 142 -119 19 4 10 19 -85 141 -338 429 -326 411 -327 457 -1 46
11 49 35 10 8 -13 29 -40 45 -61 17 -21 52 -65 78 -99 26 -33 53 -68 60 -76 7
-9 39 -49 71 -90 33 -41 62 -79 67 -83 12 -15 81 -18 73 -4 -7 12 -65 86 -239
307 -194 246 -188 237 -190 285 -2 25 -1 45 1 45 1 0 84 -103 184 -230 176
-223 182 -230 217 -230 l35 0 -28 38 c-24 31 -134 172 -252 321 -114 145 -152
196 -153 205 -5 50 -5 76 1 76 3 0 85 -101 181 -225 173 -222 174 -224 212
-225 l39 0 -30 38 c-16 20 -114 145 -217 277 -180 230 -188 241 -190 287 -1
27 -1 47 0 46 8 -8 190 -239 270 -342 87 -112 91 -116 129 -116 l38 0 -34 42
c-19 24 -117 148 -218 277 -171 217 -184 237 -185 277 -1 24 2 41 6 38 5 -2
73 -87 151 -187 79 -100 148 -189 155 -197 7 -8 20 -26 30 -38 12 -16 32 -25
56 -27 34 -4 36 -2 27 15 -5 10 -16 24 -23 32 -7 7 -72 90 -145 183 -73 94
-142 181 -153 195 -82 99 -102 133 -104 171 -1 22 2 38 7 37 5 -2 86 -102 181
-223 167 -212 174 -220 211 -223 l38 -3 -20 28 c-11 16 -76 100 -144 185 -288
366 -272 343 -273 392 -1 26 -1 46 1 46 1 0 56 -69 121 -152 64 -84 122 -158
128 -164 5 -6 33 -41 60 -77 46 -62 53 -67 88 -67 l39 0 -53 67 c-29 38 -66
86 -83 108 -17 22 -33 42 -36 45 -3 3 -41 50 -83 105 -43 55 -83 107 -90 115
-7 8 -26 33 -42 55 -16 22 -34 43 -39 46 -11 8 -19 99 -8 99 4 -1 39 -42 79
-93 91 -117 274 -351 278 -355 5 -5 75 -8 75 -4 0 1 -80 104 -177 228 -98 125
-196 249 -218 278 l-40 51 0 489 c0 445 1 491 16 510 17 21 35 4 893 -855
l877 -876 79 79 c44 44 80 83 80 86 0 4 -392 399 -871 878 l-871 871 89 86
c48 47 111 106 138 132 28 26 100 95 161 154 60 58 202 194 314 301 112 107
220 211 240 230 20 19 114 109 209 200 95 91 226 217 291 280 l118 115 62 255
c33 140 62 262 64 271 4 18 -10 15 -367 -74 -177 -44 -179 -45 -219 -88 -22
-24 -113 -120 -202 -213 -88 -93 -181 -190 -205 -215 -23 -25 -117 -123 -208
-218 -91 -95 -172 -181 -182 -191 -9 -11 -91 -98 -182 -193 -92 -96 -202 -212
-246 -258 l-78 -83 0 1151 c0 633 2 1151 5 1151 3 -1 34 -75 70 -165 53 -137
68 -165 85 -166 112 -5 195 -2 195 6 0 6 -43 116 -96 245 -52 129 -139 343
-191 475 -53 132 -102 248 -108 258 -10 15 -20 -3 -68 -120z m-983 -1595 c-20
-62 -39 -116 -43 -120 -4 -4 -45 30 -91 77 -46 46 -81 87 -78 90 12 12 243 82
246 74 2 -4 -13 -58 -34 -121z m2660 -75 c-43 -65 -85 -131 -93 -148 -8 -16
-123 -138 -256 -270 -406 -403 -1126 -1110 -1134 -1113 -10 -3 -84 75 -87 91
-2 15 65 84 836 867 l465 473 170 113 c93 62 172 111 174 109 2 -2 -32 -57
-75 -122z m-3218 -400 l85 -86 -83 -27 c-157 -51 -178 -57 -178 -52 0 5 54
176 75 240 2 6 7 12 10 12 3 0 44 -39 91 -87z m1517 -1252 c20 -21 37 -43 37
-50 0 -6 -26 -37 -59 -69 -569 -557 -887 -870 -899 -884 -15 -16 -18 -15 -54
22 -21 21 -38 41 -38 45 0 3 48 54 106 113 58 59 273 277 477 484 205 208 377
378 382 378 6 0 27 -17 48 -39z"/>
</g>
</svg>
