<?xml version="1.0" encoding="UTF-8"?>
<svg width="512px" height="512px" viewBox="0 0 512 512" version="1.1" xmlns="http://www.w3.org/2000/svg" xmlns:xlink="http://www.w3.org/1999/xlink">
    <g id="Page-1" stroke="none" stroke-width="1" fill="none" fill-rule="evenodd">
        <g id="play/ic_launcher_APP">
            <g id="Group-2">
                <rect id="background" x="0" y="0" width="512" height="512"></rect>
                <g id="Group" transform="translate(62.000000, 11.000000)" fill="#ffffff">
                    <g id="sword" transform="translate(194.927453, 245.927453) rotate(45.000000) translate(-194.927453, -245.927453) translate(165.927453, 45.927453)">
                        <path d="M29.3539411,0 L50.7987914,35.1883042 L44.2492795,334.862872 L15.4178555,334.862872 L7.90909091,35.1883042 L29.3539411,0 Z M30.0130321,24.9180328 L23.7272727,55.0072407 L25.6470183,311.256315 L34.0978766,311.256315 L36.2987914,55.0072407 L30.0130321,24.9180328 Z" id="Combined-Shape"></path>
                        <rect id="Rectangle" x="19.7727273" y="334.42623" width="19.7727273" height="65.5737705"></rect>
                        <rect id="Rectangle" x="0" y="331.803279" width="58" height="5.24590164"></rect>
                    </g>
                    <g id="hammer" transform="translate(194.454365, 245.454365) rotate(-45.000000) translate(-194.454365, -245.454365) translate(119.454365, 45.454365)">
                        <rect id="Rectangle" x="64.7727273" y="32.3987539" width="17.0454545" height="367.601246"></rect>
                        <path d="M7.95454545,19.9376947 L138.636364,19.9376947 L138.636364,94.7040498 L7.95454545,94.7040498 L7.95454545,19.9376947 Z M32.9545455,57.9439252 L51.1363636,67.2897196 L51.1363636,48.5981308 L32.9545455,57.9439252 Z M113.636364,57.9439252 L95.4545455,48.5981308 L95.4545455,67.2897196 L113.636364,57.9439252 Z" id="Combined-Shape"></path>
                        <rect id="Rectangle" x="0" y="11.2149533" width="22.7272727" height="93.4579439"></rect>
                        <rect id="Rectangle-Copy" x="127.272727" y="11.2149533" width="22.7272727" height="93.4579439"></rect>
                        <polygon id="Triangle" points="73.2954545 0 81.8181818 19.9376947 64.7727273 19.9376947"></polygon>
                    </g>
                    <g id="arrow" transform="translate(159.000000, 0.000000)">
                        <rect id="Rectangle" x="32.0196078" y="31.5446927" width="6.96078431" height="418.310056"></rect>
                        <path d="M49.3571169,74.0614525 L35.5,39.773743 L21.6428831,74.0614525 L5.56862745,74.0614525 L35.5,0 L65.4313725,74.0614525 L49.3571169,74.0614525 Z" id="Combined-Shape"></path>
                        <path d="M65.6212121,381.27933 L35.5,342.877095 L5.37878788,381.27933 L0,381.27933 L35.5,336.019553 L71,381.27933 L65.6212121,381.27933 Z" id="Combined-Shape"></path>
                        <path d="M65.6212121,394.994413 L35.5,356.592179 L5.37878788,394.994413 L0,394.994413 L35.5,349.734637 L71,394.994413 L65.6212121,394.994413 Z" id="Combined-Shape-Copy"></path>
                        <path d="M65.6212121,408.709497 L35.5,370.307263 L5.37878788,408.709497 L0,408.709497 L35.5,363.449721 L71,408.709497 L65.6212121,408.709497 Z" id="Combined-Shape-Copy-2"></path>
                        <path d="M65.6212121,422.424581 L35.5,384.022346 L5.37878788,422.424581 L0,422.424581 L35.5,377.164804 L71,422.424581 L65.6212121,422.424581 Z" id="Combined-Shape-Copy-3"></path>
                        <path d="M65.6212121,436.139665 L35.5,397.73743 L5.37878788,436.139665 L0,436.139665 L35.5,390.879888 L71,436.139665 L65.6212121,436.139665 Z" id="Combined-Shape-Copy-4"></path>
                        <path d="M65.6212121,449.854749 L35.5,411.452514 L5.37878788,449.854749 L0,449.854749 L35.5,404.594972 L71,449.854749 L65.6212121,449.854749 Z" id="Combined-Shape-Copy-5"></path>
                        <path d="M65.6212121,463.569832 L35.5,425.167598 L5.37878788,463.569832 L0,463.569832 L35.5,418.310056 L71,463.569832 L65.6212121,463.569832 Z" id="Combined-Shape-Copy-6"></path>
                        <path d="M65.6212121,477.284916 L35.5,438.882682 L5.37878788,477.284916 L0,477.284916 L35.5,432.02514 L71,477.284916 L65.6212121,477.284916 Z" id="Combined-Shape-Copy-7"></path>
                        <path d="M65.6212121,491 L35.5,452.597765 L5.37878788,491 L0,491 L35.5,445.740223 L71,491 L65.6212121,491 Z" id="Combined-Shape-Copy-8"></path>
                    </g>
                </g>
            </g>
        </g>
    </g>
</svg>
